<svg width="40" height="40" viewBox="0 0 40 40" fill="none" xmlns="http://www.w3.org/2000/svg">
<path d="M1.83795 0.0849609C3.16041 -0.269391 4.51968 0.515459 4.87408 1.83789L11.7335 27.4395L17.8184 21.3545L13.9464 6.90332C13.5921 5.58102 14.3771 4.22171 15.6993 3.86719C16.2369 3.72314 16.78 3.76987 17.2598 3.96191C17.3834 3.97561 17.5081 3.99515 17.6319 4.02832L38.1182 9.51855C39.4407 9.87293 40.2255 11.2322 39.8712 12.5547C39.5166 13.8769 38.1574 14.6619 36.835 14.3076L32.9249 13.2598L23.3487 22.8359L24.4893 27.0908C24.8437 28.4133 24.0588 29.7735 22.7364 30.1279C21.4141 30.4822 20.0548 29.6972 19.7003 28.375L19.3008 26.8838L13.3506 32.835C13.3068 32.8789 13.2592 32.9181 13.213 32.958L14.2637 36.8789C14.6179 38.2012 13.8331 39.5606 12.5108 39.915C11.1884 40.2694 9.82913 39.4845 9.47467 38.1621L0.085022 3.12109C-0.269246 1.79868 0.515578 0.439365 1.83795 0.0849609ZM21.8672 17.3057L27.3946 11.7773L19.8438 9.75488L21.8672 17.3057Z" fill="#00B5AD"/>
</svg>
